<?xml version="1.0" encoding="UTF-8"?>
<svg width="153px" height="51px" viewBox="0 0 153 51" version="1.1" xmlns="http://www.w3.org/2000/svg" xmlns:xlink="http://www.w3.org/1999/xlink">
    <!-- Generator: Sketch 49 (51002) - http://www.bohemiancoding.com/sketch -->
    <title>apple-badge-cta-en</title>
    <desc>Created with Sketch.</desc>
    <defs></defs>
    <g id="Page-1" stroke="none" stroke-width="1" fill="none" fill-rule="evenodd">
        <g id="apple-badge-cta-en" fill-rule="nonzero">
            <g id="Group">
                <g id="Shape">
                    <path d="M140.421832,2.71050543e-20 L12.156717,2.71050543e-20 C11.6891745,2.71050543e-20 11.227242,2.71050543e-20 10.7609362,0.00255 C10.370595,0.0051 9.98336475,0.01250775 9.589275,0.0187425 C8.73312994,0.0288172996 7.87899825,0.104137231 7.0343025,0.24404775 C6.1907932,0.387004101 5.37370746,0.656517569 4.6106805,1.04347275 C3.84858675,1.43370143 3.1522399,1.9407636 2.54690175,2.54626425 C1.93838568,3.15006217 1.43114056,3.84797088 1.04467125,4.613154 C0.657135308,5.37681413 0.388416635,6.19514633 0.24779625,7.039887 C0.10583895,7.88356076 0.0294504353,8.73696369 0.01931625,9.592437 C0.00748425,9.983352 0.00623475,10.3755675 0,10.7665335 L0,40.237215 C0.00623475,40.6331025 0.00748425,41.0166225 0.01931625,41.4126375 C0.029453543,42.2680684 0.105842059,43.1214287 0.24779625,43.96506 C0.38802834,44.8102945 0.656762901,45.6290965 1.04467125,46.3930425 C1.43096508,47.1557512 1.93828154,47.8508344 2.54690175,48.451275 C3.14994465,49.0594679 3.8467416,49.5668751 4.6106805,49.9541175 C5.37370166,50.3421083 6.19069932,50.613226 7.0343025,50.7583875 C7.87914185,50.8971773 8.7331857,50.9725278 9.589275,50.9838075 C9.98336475,50.9924775 10.370595,50.99745 10.7609363,50.99745 C11.2272292,51 11.6892,51 12.156717,51 L140.421832,51 C140.880067,51 141.345697,51 141.803932,50.99745 C142.192424,50.99745 142.590862,50.9924775 142.979354,50.9838075 C143.833825,50.9731277 144.686261,50.8977724 145.529354,50.7583875 C146.375679,50.6122041 147.195606,50.3411583 147.962309,49.9541175 C148.725559,49.5666509 149.421713,49.0592576 150.024239,48.451275 C150.631289,47.8484828 151.139689,47.153908 151.530779,46.3930425 C151.915777,45.6285407 152.181953,44.8098042 152.320132,43.96506 C152.462313,43.121313 152.541412,42.2681424 152.556772,41.4126375 C152.561744,41.0166225 152.561744,40.6331025 152.561744,40.237215 C152.571689,39.7740075 152.571689,39.31335 152.571689,38.84262 L152.571689,12.1585657 C152.571689,11.691648 152.571689,11.228466 152.561744,10.7665335 C152.561744,10.3755675 152.561744,9.983352 152.556772,9.592386 C152.541415,8.73683862 152.462316,7.88362548 152.320132,7.039836 C152.181568,6.19558404 151.915407,5.37731668 151.530779,4.613103 C150.743753,3.079375 149.495756,1.83093238 147.962309,1.043358 C147.195603,0.65734841 146.375589,0.387906523 145.529354,0.243933 C144.686407,0.103406049 143.833882,0.0280599002 142.979354,0.018564 C142.590862,0.012342 142.192424,0.0048705 141.803932,0.00238425 C141.345697,-0.00016575 140.880067,-0.00016575 140.421832,-0.00016575 L140.421832,2.71050543e-20 Z" fill="#A6A6A6"></path>
                    <path d="M10.7671582,49.884375 C10.3786912,49.884375 9.99960825,49.8794025 9.6141885,49.8707325 C8.81576026,49.8603294 8.01919815,49.7908219 7.231035,49.66278 C6.49611263,49.5362084 5.78417041,49.3007622 5.1186915,48.9642075 C4.45931467,48.6304414 3.85791,48.1927979 3.3375165,47.6680425 C2.80959042,47.1494684 2.37006784,46.5480111 2.03636625,45.887505 C1.69898756,45.2227062 1.46550142,44.510122 1.34404125,43.774575 C1.21287481,42.9842215 1.14190833,42.1850494 1.13175375,41.38395 C1.12367025,41.1150525 1.11308775,40.2197475 1.11308775,40.2197475 L1.11308775,10.7665335 C1.11308775,10.7665335 1.12435875,9.88498575 1.1318175,9.625995 C1.14154043,8.82616461 1.21209424,8.0282327 1.34286825,7.23910575 C1.46455262,6.50154385 1.69821951,5.78690481 2.03577975,5.11992825 C2.3682549,4.45987841 2.80533734,3.85797187 3.33008325,3.337542 C3.85423936,2.81216731 4.45756781,2.37227025 5.11806675,2.03389275 C5.7820162,1.69841934 6.49261294,1.464634 7.22604975,1.34036925 C8.01680135,1.21104108 8.81612882,1.14112001 9.617325,1.13119275 L10.767783,1.115625 L141.797684,1.115625 L142.961887,1.1318175 C143.755795,1.14125148 144.547862,1.21054876 145.331347,1.33911975 C146.072208,1.46494321 146.790211,1.70035981 147.461744,2.0376285 C148.784963,2.71955721 149.86164,3.79843276 150.540869,5.12303925 C150.873042,5.78541139 151.103104,6.49422111 151.223249,7.22541225 C151.35558,8.02101401 151.429642,8.82521638 151.444844,9.631605 C151.448542,9.992685 151.448542,10.38054 151.448542,10.7665335 C151.458614,11.2446585 151.458614,11.6997443 151.458614,12.1585658 L151.458614,38.84262 C151.458614,39.3058275 151.458614,39.757815 151.448542,40.2135 C151.448542,40.62813 151.448542,41.0079525 151.443569,41.3988675 C151.428696,42.1908665 151.355869,42.9807144 151.225672,43.76208 C151.106701,44.502933 150.874486,45.2210792 150.537172,45.89133 C150.201111,46.5446669 149.764113,47.1409144 149.242282,47.6580975 C148.72142,48.1856729 148.118954,48.6258769 147.458047,48.961785 C146.788373,49.3009269 146.071428,49.5372439 145.331347,49.66278 C144.543243,49.7915052 143.746605,49.8610172 142.948117,49.8707325 C142.574669,49.8794025 142.183627,49.884375 141.803932,49.884375 L140.421832,49.886925 L10.7671582,49.884375 Z" fill="#000000"></path>
                </g>
                <g id="_Group_" transform="translate(11.475000, 10.200000)" fill="#FFFFFF">
                    <g id="_Group_2">
                        <g id="_Group_3">
                            <path d="M20.105322,15.683367 C20.1331897,13.5203666 21.2671567,11.5224123 23.109936,10.3894905 C21.9421286,8.72165378 20.0562499,7.7021199 18.021207,7.6384485 C15.880176,7.413717 13.8045397,8.91960675 12.7135095,8.91960675 C11.6013652,8.91960675 9.92155275,7.660761 8.112672,7.69797825 C5.73265661,7.77487148 3.5676249,9.09524499 2.409699,11.1760125 C-0.056151,15.445248 1.78315125,21.7195867 4.145229,25.1705145 C5.3270265,26.8603357 6.7082085,28.7479095 8.51545725,28.680972 C10.2839587,28.6076212 10.9444597,27.55326 13.0791922,27.55326 C15.1941112,27.55326 15.8137995,28.680972 17.6577173,28.6384125 C19.5554018,28.6076085 20.751033,26.9410815 21.8913675,25.235259 C22.7404871,24.0311996 23.3938832,22.7004518 23.827353,21.2923087 C21.5734801,20.3390311 20.1079526,18.1305438 20.105322,15.683367 Z" id="_Path_"></path>
                            <path d="M16.6224938,5.36888475 C17.6571902,4.12676943 18.1669458,2.53024063 18.0435067,0.91834425 C16.4627207,1.08437537 15.0025173,1.83988834 13.9538422,3.034347 C12.9183239,4.21284101 12.3937327,5.75462666 12.495612,7.32011925 C14.0975945,7.33661363 15.618643,6.61744535 16.6224938,5.36888475 Z" id="_Path_2"></path>
                        </g>
                    </g>
                    <g id="Group" transform="translate(31.875000, 11.475000)">
                        <path d="M10.5853943,12.9280537 L4.55030925,12.9280537 L3.10099125,17.2075275 L0.54476925,17.2075275 L6.26110425,1.3745775 L8.91692925,1.3745775 L14.6332642,17.2075275 L12.03345,17.2075275 L10.5853943,12.9280537 Z M5.1753525,10.9532955 L9.9591525,10.9532955 L7.60089975,4.00802625 L7.53490575,4.00802625 L5.1753525,10.9532955 Z" id="Shape"></path>
                        <path d="M26.9786047,11.4364057 C26.9786047,15.0235927 25.0586332,17.3282955 22.1612467,17.3282955 C20.663613,17.4066374 19.2529238,16.6222141 18.5292435,15.3086955 L18.4744185,15.3086955 L18.4744185,21.02628 L16.1049585,21.02628 L16.1049585,5.6640345 L18.398505,5.6640345 L18.398505,7.584006 L18.4420845,7.584006 C19.1979151,6.27872209 20.6101254,5.49463652 22.1176672,5.54325375 C25.047375,5.5432665 26.9786047,7.8591765 26.9786047,11.4364057 Z M24.5431508,11.4364057 C24.5431508,9.09933075 23.3353815,7.562841 21.4926112,7.562841 C19.6822133,7.562841 18.4644863,9.13169025 18.4644863,11.4364057 C18.4644863,13.7622862 19.6822133,15.3199282 21.4926112,15.3199282 C23.3353943,15.3199282 24.5431508,13.7946585 24.5431508,11.4364057 Z" id="Shape"></path>
                        <path d="M39.6837757,11.4364057 C39.6837757,15.0235927 37.7638042,17.3282955 34.8664177,17.3282955 C33.368784,17.4066374 31.9580948,16.6222141 31.2344145,15.3086955 L31.1795895,15.3086955 L31.1795895,21.02628 L28.8101295,21.02628 L28.8101295,5.6640345 L31.103625,5.6640345 L31.103625,7.584006 L31.1472045,7.584006 C31.9030406,6.27872288 33.3152563,5.49464192 34.8228,5.5432665 C37.752597,5.5432665 39.6837757,7.8591765 39.6837757,11.4364057 Z M37.2483218,11.4364057 C37.2483218,9.09933075 36.0405525,7.562841 34.1977822,7.562841 C32.3873842,7.562841 31.1696572,9.13169025 31.1696572,11.4364057 C31.1696572,13.7622862 32.3873842,15.3199282 34.1977822,15.3199282 C36.0405653,15.3199282 37.2483345,13.7946585 37.2483345,11.4364057 L37.2483218,11.4364057 Z" id="Shape"></path>
                        <path d="M48.0808493,12.7960657 C48.2564167,14.3661645 49.7816993,15.3970657 51.8660055,15.3970657 C53.8631783,15.3970657 55.3000395,14.3661135 55.3000395,12.9504045 C55.3000395,11.7214702 54.4334348,10.9856295 52.381488,10.4813415 L50.3295412,9.987024 C47.422197,9.2847795 46.072482,7.92510675 46.072482,5.7187575 C46.072482,2.986968 48.4531492,1.110576 51.8336333,1.110576 C55.1792332,1.110576 57.472767,2.986968 57.5499683,5.7187575 L55.1580682,5.7187575 C55.0148857,4.138701 53.7087503,3.18495 51.799986,3.18495 C49.8912217,3.18495 48.585099,4.149921 48.585099,5.55441 C48.585099,6.67377075 49.4193315,7.33243575 51.460071,7.83666 L53.204475,8.2649835 C56.4529838,9.033222 57.8026987,10.3381335 57.8026987,12.654018 C57.8026987,15.616149 55.4431965,17.471376 51.6904125,17.471376 C48.1791772,17.471376 45.8084805,15.6597285 45.6553275,12.795951 L48.0808493,12.7960657 Z" id="Shape"></path>
                        <path d="M62.9164178,2.932245 L62.9164178,5.6640345 L65.1115598,5.6640345 L65.1115598,7.5404265 L62.9164178,7.5404265 L62.9164178,13.9042192 C62.9164178,14.8928415 63.3559485,15.3535372 64.3209068,15.3535372 C64.5815058,15.3489931 64.8416832,15.3306926 65.1003525,15.2987123 L65.1003525,17.163897 C64.6665061,17.2449609 64.2255378,17.2816745 63.7842593,17.2734705 C61.4471843,17.2734705 60.5357505,16.3956585 60.5357505,14.156937 L60.5357505,7.5404265 L58.8573405,7.5404265 L58.8573405,5.6640345 L60.535725,5.6640345 L60.535725,2.932245 L62.9164178,2.932245 Z" id="Shape"></path>
                        <path d="M66.382875,11.4364057 C66.382875,7.8044025 68.5219807,5.5221015 71.8576612,5.5221015 C75.2045362,5.5221015 77.3336843,7.8043515 77.3336843,11.4364057 C77.3336843,15.0783795 75.2157435,17.35071 71.8576612,17.35071 C68.5007648,17.35071 66.382875,15.0783667 66.382875,11.4364057 Z M74.9193953,11.4364057 C74.9193953,8.94492825 73.77762,7.47444525 71.8576485,7.47444525 C69.937677,7.47444525 68.7971513,8.9561355 68.7971513,11.4364057 C68.7971513,13.937841 69.937677,15.3971295 71.8576485,15.3971295 C73.77762,15.3971295 74.9193443,13.937841 74.9193443,11.4364057 L74.9193953,11.4364057 Z" id="Shape"></path>
                        <path d="M79.2872265,5.6640345 L81.547113,5.6640345 L81.547113,7.6288095 L81.601938,7.6288095 C81.9170875,6.36399472 83.076007,5.49350523 84.3785437,5.543241 C84.6516029,5.54228759 84.9239087,5.5719422 85.1903617,5.6316495 L85.1903617,7.8479565 C84.8456412,7.74262023 84.4860385,7.6942569 84.1257367,7.704774 C83.4291382,7.67651419 82.7549854,7.95413178 82.2802909,8.46473262 C81.8055963,8.97533345 81.5777851,9.6679052 81.6566737,10.360599 L81.6566737,17.207502 L79.2872137,17.207502 L79.2872265,5.6640345 Z" id="Shape"></path>
                        <path d="M96.1149825,13.8170602 C95.7962325,15.9125865 93.7554803,17.3506972 91.1444715,17.3506972 C87.7863892,17.3506972 85.7020703,15.1007685 85.7020703,11.4911797 C85.7020703,7.87038375 87.7975965,5.52208875 91.0448685,5.52208875 C94.2385905,5.52208875 96.2469705,7.71598125 96.2469705,11.2160092 L96.2469705,12.0278272 L88.0939448,12.0278272 L88.0939448,12.1710097 C88.017824,13.0304001 88.3145728,13.8810773 88.9087079,14.5066567 C89.502843,15.132236 90.3371001,15.4724224 91.199271,15.4406835 C92.3491199,15.5484205 93.4332024,14.8881465 93.8650665,13.8170475 L96.1149825,13.8170602 Z M88.1051296,10.3718317 L93.876261,10.371819 C93.919261,9.5995993 93.6381631,8.84444943 93.1006913,8.28830522 C92.5632196,7.73216101 91.818106,7.42544752 91.0448685,7.44206025 C90.2655143,7.43740934 89.5165907,7.74426665 88.96456,8.29442739 C88.4125294,8.84458812 88.1031327,9.59246622 88.1051296,10.3718317 Z" id="Shape"></path>
                    </g>
                </g>
            </g>
            <g id="_Group_4" transform="translate(44.625000, 10.200000)" fill="#FFFFFF">
                <g id="Group">
                    <path d="M3.60339225,0.932025 C4.60929911,0.859839831 5.59456264,1.24254797 6.28799565,1.97481157 C6.98142865,2.70707516 7.30993949,3.71170961 7.18310775,4.712196 C7.18310775,7.14266475 5.8695135,8.539746 3.60339225,8.539746 L0.855423,8.539746 L0.855423,0.932025 L3.60339225,0.932025 Z M2.03702925,7.46385 L3.47140425,7.46385 C4.19027723,7.50682006 4.89024532,7.22358773 5.37695361,6.69279603 C5.86366189,6.16200433 6.085294,5.44016288 5.980311,4.7277 C6.07765599,4.01819378 5.85283214,3.30230892 5.36733062,2.77584583 C4.8818291,2.24938273 4.18645698,1.96743503 3.47140425,2.00711775 L2.03702925,2.00711775 L2.03702925,7.46385 Z" id="Shape"></path>
                    <path d="M8.517867,5.6665335 C8.41942059,4.63746194 8.91286667,3.64154272 9.79125531,3.09646164 C10.6696439,2.55138057 11.7811043,2.55138057 12.6594929,3.09646164 C13.5378816,3.64154272 14.0313277,4.63746194 13.9328813,5.6665335 C14.0332007,6.69671088 13.540205,7.69456174 12.6610376,8.24081626 C11.7818701,8.78707078 10.6688782,8.78707078 9.78971068,8.24081626 C8.91054321,7.69456174 8.41754753,6.69671088 8.517867,5.6665335 Z M12.767442,5.6665335 C12.767442,4.42204425 12.20838,3.69427425 11.227242,3.69427425 C10.2423555,3.69427425 9.688317,4.42204425 9.688317,5.66654625 C9.688317,6.921006 10.2423938,7.643166 11.227242,7.643166 C12.2084055,7.64315325 12.7674547,6.916008 12.7674547,5.6665335 L12.767442,5.6665335 Z" id="Shape"></path>
                    <polygon id="Shape" points="21.1309065 8.53963125 19.9555222 8.53963125 18.7689307 4.3112085 18.6792855 4.3112085 17.4976665 8.53963125 16.3334767 8.53963125 14.750934 2.7983955 15.9001807 2.7983955 16.9286467 7.1792955 17.0133195 7.1792955 18.193689 2.7983955 19.2806775 2.7983955 20.461047 7.1792955 20.5506922 7.1792955 21.574173 2.7983955 22.7072272 2.7983955"></polygon>
                    <path d="M24.0382635,2.7983955 L25.128975,2.7983955 L25.128975,3.71044125 L25.2136477,3.71044125 C25.5080897,3.03893437 26.1961154,2.62816703 26.926929,2.6875725 C27.4927954,2.64502801 28.0473045,2.86210713 28.4338907,3.27751764 C28.820477,3.69292815 28.9971887,4.26159029 28.9141313,4.8229425 L28.9141313,8.5395675 L27.781077,8.5395675 L27.781077,5.1074715 C27.781077,4.18484325 27.3801533,3.726009 26.542185,3.726009 C26.1583664,3.70813238 25.7858807,3.85876528 25.5223821,4.1384164 C25.2588835,4.41806752 25.1306517,4.79884629 25.171305,5.18092425 L25.171305,8.53963125 L24.0382508,8.53963125 L24.0382635,2.7983955 Z" id="Shape"></path>
                    <polygon id="Shape" points="30.7195567 0.557175 31.852611 0.557175 31.852611 8.5396185 30.7195567 8.5396185"></polygon>
                    <path d="M33.4276823,5.6665335 C33.3293114,4.63739462 33.8228354,3.64145019 34.7012892,3.09636071 C35.579743,2.55127123 36.6912605,2.55127123 37.5697143,3.09636071 C38.4481681,3.64145019 38.9416921,4.63739462 38.8433213,5.6665335 C38.9435133,6.69674777 38.4504273,7.69457042 37.5712162,8.24080088 C36.6920051,8.78703134 35.5789984,8.78703134 34.6997873,8.24080088 C33.8205762,7.69457042 33.3274902,6.69674777 33.4276823,5.6665335 Z M37.6772573,5.6665335 C37.6772573,4.42204425 37.1181953,3.69427425 36.1370573,3.69427425 C35.1521708,3.69427425 34.5981323,4.42204425 34.5981323,5.66654625 C34.5981323,6.921006 35.152209,7.643166 36.1370573,7.643166 C37.118208,7.64315325 37.67727,6.916008 37.67727,5.6665335 L37.6772573,5.6665335 Z" id="Shape"></path>
                    <path d="M40.0361475,6.916008 C40.0361475,5.88255675 40.8056355,5.28677475 42.1715175,5.202102 L43.7266732,5.11245675 L43.7266732,4.6169025 C43.7266732,4.01052525 43.3257495,3.668124 42.551289,3.668124 C41.9187742,3.668124 41.480493,3.90033975 41.354727,4.30624875 L40.2577808,4.30624875 C40.3735762,3.32011275 41.3011897,2.687598 42.6035767,2.687598 C44.042937,2.687598 44.854755,3.404148 44.854755,4.6169025 L44.854755,8.539644 L43.7640308,8.539644 L43.7640308,7.73281125 L43.6743855,7.73281125 C43.3039325,8.32202233 42.6451464,8.66638312 41.949897,8.63423625 C41.4625106,8.68493256 40.9764232,8.52708609 40.6118047,8.19971937 C40.2471861,7.87235264 40.0380678,7.40602022 40.0361475,6.916008 Z M43.7266732,6.42542625 L43.7266732,5.94543975 L42.3246705,6.035085 C41.5340175,6.0879975 41.1754237,6.356946 41.1754237,6.86308275 C41.1754237,7.379802 41.6236628,7.680498 42.2400487,7.680498 C42.604936,7.71743458 42.9691911,7.60470569 43.2494285,7.36811738 C43.5296658,7.13152906 43.7018893,6.79133985 43.7266732,6.42542625 Z" id="Shape"></path>
                    <path d="M46.343904,5.6665335 C46.343904,3.85239975 47.2765027,2.703153 48.7270575,2.703153 C49.4595154,2.66940392 50.1455301,3.06187791 50.487654,3.710403 L50.5723267,3.710403 L50.5723267,0.557175 L51.705381,0.557175 L51.705381,8.5396185 L50.619642,8.5396185 L50.619642,7.63254525 L50.5299967,7.63254525 C50.1620116,8.27568965 49.467545,8.66152951 48.7270702,8.63423625 C47.266545,8.6343 46.343904,7.48502775 46.343904,5.6665335 Z M47.514354,5.6665335 C47.514354,6.8842605 48.088359,7.61701575 49.0483447,7.61701575 C50.0033197,7.61701575 50.59353,6.87369075 50.59353,5.67151875 C50.59353,4.47495675 49.9971233,3.7210365 49.0483447,3.7210365 C48.0945427,3.7210365 47.5143158,4.45876425 47.5143158,5.6665335 L47.514354,5.6665335 Z" id="Shape"></path>
                    <path d="M56.39325,5.6665335 C56.2948036,4.63746194 56.7882497,3.64154272 57.6666383,3.09646164 C58.5450269,2.55138057 59.6564873,2.55138057 60.5348759,3.09646164 C61.4132646,3.64154272 61.9067107,4.63746194 61.8082643,5.6665335 C61.9085837,6.69671088 61.415588,7.69456174 60.5364206,8.24081626 C59.6572531,8.78707078 58.5442612,8.78707078 57.6650937,8.24081626 C56.7859262,7.69456174 56.2929305,6.69671088 56.39325,5.6665335 Z M60.642825,5.6665335 C60.642825,4.42204425 60.083763,3.69427425 59.102625,3.69427425 C58.1177385,3.69427425 57.5637,4.42204425 57.5637,5.66654625 C57.5637,6.921006 58.1177768,7.643166 59.102625,7.643166 C60.0837757,7.64315325 60.642825,6.916008 60.642825,5.6665335 Z" id="Shape"></path>
                    <path d="M63.3285487,2.7983955 L64.419273,2.7983955 L64.419273,3.71044125 L64.5039457,3.71044125 C64.7983877,3.03893437 65.4864134,2.62816703 66.217227,2.6875725 C66.7830934,2.64502801 67.3376025,2.86210713 67.7241887,3.27751764 C68.110775,3.69292815 68.2874867,4.26159029 68.2044293,4.8229425 L68.2044293,8.5395675 L67.071375,8.5395675 L67.071375,5.1074715 C67.071375,4.18484325 66.6704512,3.726009 65.832483,3.726009 C65.4486644,3.70813238 65.0761787,3.85876528 64.8126801,4.1384164 C64.5491815,4.41806752 64.4209497,4.79884629 64.461603,5.18092425 L64.461603,8.53963125 L63.3285487,8.53963125 L63.3285487,2.7983955 Z" id="Shape"></path>
                    <path d="M74.606829,1.36900575 L74.606829,2.82454575 L75.8507062,2.82454575 L75.8507062,3.77893425 L74.606829,3.77893425 L74.606829,6.7311075 C74.606829,7.3324995 74.8546125,7.595838 75.418647,7.595838 C75.5630478,7.59537586 75.7073038,7.58664482 75.8507062,7.56968775 L75.8507062,8.513481 C75.6472284,8.54988317 75.4410687,8.56924955 75.2343712,8.57137875 C73.9743142,8.57137875 73.4725252,8.12811225 73.4725252,7.02120825 L73.4725252,3.77888325 L72.5611042,3.77888325 L72.5611042,2.82449475 L73.4725252,2.82449475 L73.4725252,1.36900575 L74.606829,1.36900575 Z" id="Shape"></path>
                    <path d="M77.3983777,0.557175 L78.5214742,0.557175 L78.5214742,3.72102375 L78.6111195,3.72102375 C78.9197049,3.04363991 79.6197722,2.63234912 80.3616945,2.69255775 C80.9243477,2.66194153 81.4713504,2.88379973 81.8537113,3.29770316 C82.2360723,3.71160659 82.4139663,4.27444469 82.338939,4.832913 L82.338939,8.53963125 L81.20475,8.53963125 L81.20475,5.11243125 C81.20475,4.19540025 80.777625,3.73096875 79.9770652,3.73096875 C79.5828722,3.69863943 79.1945073,3.84194597 78.9157965,4.12257672 C78.6370856,4.40320746 78.4964484,4.7925469 78.531483,5.18650875 L78.531483,8.53960575 L77.3984287,8.53960575 L77.3983777,0.557175 Z" id="Shape"></path>
                    <path d="M88.9455938,6.98946075 C88.6278727,8.07241959 87.5798761,8.77213137 86.457852,8.6504415 C85.692296,8.6706505 84.9565541,8.35332914 84.445836,7.78267033 C83.935118,7.21201152 83.7010552,6.44570632 83.80575,5.68707375 C83.7038359,4.92633286 83.9370217,4.15879976 84.4448958,3.58331987 C84.9527699,3.00783998 85.6853576,2.68104036 86.4528667,2.68758525 C88.0503525,2.68758525 89.014074,3.77898525 89.014074,5.58183525 L89.014074,5.9772 L84.9599693,5.9772 L84.9599693,6.040695 C84.9240933,6.46672368 85.0695947,6.88812088 85.36069,7.20125189 C85.6517853,7.5143829 86.0614645,7.690193 86.4889748,7.685445 C87.0433089,7.75199322 87.5829152,7.47702463 87.8548695,6.9894225 L88.9455938,6.98946075 Z M84.9599437,5.139219 L87.8598165,5.139219 C87.888699,4.74957956 87.7516945,4.36586147 87.4825656,4.08262534 C87.2134366,3.79938922 86.8372123,3.64297619 86.4466065,3.6519315 C86.0507088,3.64695761 85.6695807,3.80207708 85.3896778,4.08210232 C85.109775,4.36212757 84.9548222,4.74332351 84.9599693,5.139219 L84.9599437,5.139219 Z" id="Shape"></path>
                </g>
            </g>
        </g>
    </g>
</svg>