<svg xmlns="http://www.w3.org/2000/svg" width="72" height="72" viewBox="0 0 72 72">
    <path fill="#FFF" fill-rule="nonzero" d="M23.498 38.427c0 .726-.126 1.509-.377 2.348a7.056 7.056 0 0 1-1.22 2.338c-.561.72-1.295 1.32-2.2 1.804-.906.484-2.007.726-3.302.726h-9.3v-4.979h9.3c.7 0 1.242-.218 1.626-.655.383-.436.575-.977.575-1.622 0-.685-.215-1.223-.645-1.613-.43-.39-.948-.584-1.556-.584h-9.3c-.7 0-1.243.218-1.626.655-.383.437-.575.977-.575 1.622v7.317c0 .699.215 1.243.644 1.633.43.39.962.584 1.597.584h9.26V53h-9.3c-.714 0-1.484-.128-2.31-.383a6.867 6.867 0 0 1-2.3-1.24c-.708-.57-1.3-1.316-1.775-2.237C.238 48.22 0 47.101 0 45.784v-7.357c0-.725.126-1.508.377-2.348.25-.84.657-1.62 1.22-2.338.561-.719 1.295-1.32 2.2-1.804.906-.484 2.006-.726 3.302-.726h9.3c.714 0 1.484.128 2.31.383a6.867 6.867 0 0 1 2.3 1.24c.707.571 1.299 1.317 1.775 2.237.476.92.714 2.04.714 3.356zM36.387 53h-2.3c-.74 0-1.53-.128-2.37-.383a6.966 6.966 0 0 1-2.35-1.26c-.727-.584-1.328-1.343-1.804-2.277-.476-.934-.714-2.08-.714-3.437V22h5.155v23.643c0 .645.199 1.159.595 1.542.397.383.893.574 1.487.574h2.3V53zm8.546-26.263h-5.156V22h5.156v4.737zm0 26.263h-5.156V31.211h5.156V53zM72 45.784c0 .726-.126 1.508-.377 2.348a7.056 7.056 0 0 1-1.22 2.338c-.561.72-1.295 1.32-2.2 1.804-.906.484-2.006.726-3.302.726h-9.3c-.714 0-1.484-.128-2.31-.383a6.867 6.867 0 0 1-2.3-1.24c-.707-.57-1.299-1.316-1.775-2.237-.476-.92-.714-2.039-.714-3.356 0-.725.126-1.512.377-2.358a7.038 7.038 0 0 1 1.22-2.348c.561-.72 1.295-1.32 2.2-1.804.906-.484 2.007-.726 3.302-.726h9.3v4.999h-9.3c-.7 0-1.242.218-1.626.655-.383.437-.575.977-.575 1.622 0 .686.222 1.22.664 1.603.443.383.969.574 1.577.574h9.26c.7 0 1.243-.215 1.626-.645.383-.43.575-.967.575-1.612v-7.317c0-.685-.208-1.23-.624-1.632-.417-.404-.942-.605-1.577-.605H53.58V31.21H64.9c.714 0 1.484.128 2.31.383a6.867 6.867 0 0 1 2.3 1.24c.708.571 1.3 1.317 1.775 2.237.476.92.714 2.04.714 3.356v7.357z"/>
</svg>
